<svg width="12" height="12" viewBox="0 0 12 12" fill="none" xmlns="http://www.w3.org/2000/svg">
<path fill-rule="evenodd" clip-rule="evenodd" d="M9.34223 8.1272L11.8106 9.65976C12.1953 9.96381 11.9253 10.7147 11.606 11.1355L11.537 11.2203L11.4167 11.3478C10.8771 11.877 10.1089 12.1046 9.36805 11.9547L9.1977 11.9133L8.80752 11.7952C7.13679 11.257 5.5657 10.3312 4.09425 9.01792L4.08201 9.03089C3.93643 8.89418 3.79314 8.75532 3.65213 8.6143L3.52064 8.47946L3.38562 8.34779L3.17571 8.13456L2.96903 7.91791L2.9813 7.90488C1.66837 6.43366 0.742843 4.86283 0.204724 3.19239L0.0865841 2.80222C-0.137905 2.01058 0.0821862 1.16435 0.65215 0.583228L0.779606 0.462876C1.17572 0.116541 2.01439 -0.222856 2.34016 0.189329L3.87271 2.65769C4.03578 2.92175 4.07246 3.24225 3.97789 3.53324L3.92931 3.65589L3.43193 4.24895C3.27794 4.57612 3.30437 4.9562 3.49442 5.25663L3.57333 5.3653C4.0186 6.02405 4.16687 6.30668 4.93154 7.07134C5.6962 7.836 6.63462 8.42659 6.63462 8.42659L6.74329 8.5055C7.00616 8.6718 7.33002 8.71282 7.62606 8.61731L7.75097 8.56799L8.34403 8.0706L8.46668 8.02202C8.7161 7.94097 8.9872 7.95634 9.22585 8.06507L9.34223 8.1272L11.8106 9.65976L9.34223 8.1272Z" fill="#9F9EA2"/>
</svg>
