<svg width="19" height="19" viewBox="0 0 19 19" fill="none" xmlns="http://www.w3.org/2000/svg">
<path d="M7.28258 9.50125L0.45541 2.6733C-0.054379 2.16351 -0.147329 1.37609 0.234253 0.737701L0.346391 0.580641L0.45541 0.458699C1.01532 -0.101215 1.90275 -0.153371 2.52297 0.328875L2.66999 0.458678L9.49796 7.28587L16.3267 0.458699C16.8866 -0.101215 17.774 -0.153371 18.4194 0.34968L18.5413 0.458699C19.1012 1.01861 19.1534 1.90604 18.6503 2.55136L18.5413 2.67332L11.7123 9.50125L18.5413 16.33C19.1012 16.8899 19.1534 17.7773 18.6503 18.4226L18.5413 18.5446C17.9814 19.1045 17.094 19.1567 16.4486 18.6536L16.3267 18.5446L9.49796 11.7156L2.67001 18.5446C2.1101 19.1045 1.22267 19.1567 0.577352 18.6536L0.45541 18.5446C-0.104504 17.9847 -0.15666 17.0972 0.346391 16.4519L0.455367 16.33L7.28258 9.50125Z" fill="white"/>
</svg>
