<svg width="10" height="20" viewBox="0 0 10 20" fill="none" xmlns="http://www.w3.org/2000/svg">
<path fill-rule="evenodd" clip-rule="evenodd" d="M5 0C7.76142 0 10 2.23858 10 5C10 6.98013 8.84895 8.69142 7.17945 9.50127L7.29102 9.50041V17.6355C7.29102 17.7415 7.25731 17.8442 7.19581 17.929L7.14457 17.989L6.00234 19.1313C5.64228 19.4913 5.07586 19.5195 4.68354 19.2154L4.58931 19.1324L3.35856 17.9057C3.18693 17.7303 3.17062 17.4606 3.30776 17.2673L3.36638 17.1987L3.97591 16.6025C4.15126 16.4308 4.17354 16.1616 4.04085 15.9652L3.98383 15.8953L3.01376 14.9016C2.85347 14.7157 2.8541 14.4456 3.0031 14.2612L3.0659 14.1964L3.95269 13.4299C4.12626 13.2563 4.14554 12.9869 4.01055 12.792L3.95269 12.7228L3.15081 11.9209C3.07579 11.8459 3.02708 11.7495 3.01059 11.646L3.00436 11.5674L3.00444 9.58589C1.23616 8.81535 0 7.05204 0 5C0 2.23858 2.23858 0 5 0ZM5.025 2C4.26561 2 3.65 2.61561 3.65 3.375C3.65 4.13439 4.26561 4.75 5.025 4.75C5.78439 4.75 6.4 4.13439 6.4 3.375C6.4 2.61561 5.78439 2 5.025 2Z" fill="white"/>
</svg>
