<svg width="26" height="22" viewBox="0 0 26 22" fill="none" xmlns="http://www.w3.org/2000/svg">
<path fill-rule="evenodd" clip-rule="evenodd" d="M17.0499 0.780928C16.4925 0.27823 15.7684 0 15.0178 0H10.9065C10.156 0 9.43219 0.278087 8.87477 0.780552L8.06783 1.50793C7.51943 2.00227 6.80729 2.27586 6.06897 2.27586C2.71717 2.27586 0 4.99303 0 8.34483V15.931C0 19.2828 2.71717 22 6.06897 22H19.7241C23.0759 22 25.7931 19.2828 25.7931 15.931V8.34483C25.7931 4.99303 23.0759 2.27586 19.7241 2.27586L19.5071 2.26694C18.9314 2.21956 18.3848 1.98467 17.9529 1.5952L17.0499 0.780928ZM10.9065 1.21379H15.0178C15.4682 1.21379 15.9026 1.38073 16.2371 1.68235L17.1401 2.49662C17.7686 3.06342 18.5655 3.40733 19.4075 3.47665L19.6743 3.48863C22.4056 3.48966 24.5793 5.66339 24.5793 8.34483V15.931C24.5793 18.6125 22.4056 20.7862 19.7241 20.7862H6.06897C3.38753 20.7862 1.21379 18.6125 1.21379 15.931V8.34483C1.21379 5.73586 3.27162 3.60753 5.8527 3.49439L6.30788 3.48286C7.26022 3.42861 8.16848 3.05134 8.88052 2.4095L9.68746 1.68212C10.0219 1.38065 10.4562 1.21379 10.9065 1.21379ZM12.8966 5.31034C16.1087 5.31034 18.7126 7.9143 18.7126 11.1264C18.7126 14.3386 16.1087 16.9425 12.8966 16.9425C9.68441 16.9425 7.08046 14.3386 7.08046 11.1264C7.08046 7.9143 9.68441 5.31034 12.8966 5.31034ZM8.29425 11.1264C8.29425 8.58466 10.3548 6.52414 12.8966 6.52414C15.4383 6.52414 17.4988 8.58466 17.4988 11.1264C17.4988 13.6682 15.4383 15.7287 12.8966 15.7287C10.3548 15.7287 8.29425 13.6682 8.29425 11.1264Z" fill="#545458" fill-opacity="0.65"/>
</svg>
