<svg width="22" height="22" viewBox="0 0 22 22" fill="none" xmlns="http://www.w3.org/2000/svg">
<path d="M21.5903 19.421C21.4396 19.6757 21.252 19.9067 21.0336 20.1065C19.4792 21.5281 18.2547 22.0456 16.8514 21.8364C13.9754 21.4076 10.634 19.5093 6.91065 15.9125L6.90457 15.917L6.59594 15.6046L6.28397 15.2964C2.69166 11.567 0.494334 8.30853 0.0655097 5.43255C-0.143741 4.02918 0.0988768 2.59031 1.52047 1.0359C1.72022 0.81749 1.95121 0.629875 2.20594 0.479162C3.63049 -0.363709 5.32015 -0.101917 6.16301 1.32264L8.05562 4.52138C8.51907 5.30467 8.52291 6.2773 8.06566 7.06423L7.48652 8.06094C7.20009 8.55391 7.12959 9.37568 7.48652 9.80858L7.57424 9.90512C7.57424 9.90512 8.63271 11.1713 9.75256 12.2788C10.8724 13.3862 12.1011 14.382 12.1011 14.382C12.5042 14.7851 13.1125 14.8894 13.6224 14.6552L13.7382 14.5952L14.7349 14.016C15.4693 13.5893 16.3936 13.4454 17.1466 13.8208L17.3057 13.9073L20.5045 15.7999C21.929 16.6428 22.4332 17.9964 21.5903 19.421Z" fill="#007AFF"/>
</svg>
