<svg width="26" height="25" viewBox="0 0 26 25" fill="none" xmlns="http://www.w3.org/2000/svg">
<path fill-rule="evenodd" clip-rule="evenodd" d="M21.7629 3.82589C19.3914 1.39585 16.1481 0 12.6831 0C9.21937 0 5.97603 1.39585 3.60456 3.82589C3.37157 4.06463 3.37623 4.44705 3.61498 4.68003C3.85372 4.91302 4.23613 4.90836 4.46912 4.66961C6.61552 2.4702 9.54825 1.20803 12.6831 1.20803L13.0318 1.21321C16.0354 1.30281 18.8314 2.55166 20.8983 4.66961C21.1313 4.90836 21.5137 4.91302 21.7525 4.68003C21.9912 4.44705 21.9959 4.06463 21.7629 3.82589ZM21.7446 12.6843C21.7446 7.6805 17.6882 3.62409 12.6843 3.62409C7.6805 3.62409 3.62409 7.6805 3.62409 12.6843C3.62409 17.6882 7.6805 21.7446 12.6843 21.7446C17.6882 21.7446 21.7446 17.6882 21.7446 12.6843ZM0.486762 9.19284C0.578411 8.87209 0.912729 8.68637 1.23348 8.77802C1.55423 8.86967 1.73996 9.20398 1.64831 9.52474C1.35728 10.5433 1.20803 11.6035 1.20803 12.6843C1.20803 17.9304 4.75825 22.4708 9.75967 23.7848C10.0823 23.8695 10.2751 24.1998 10.1904 24.5224C10.1056 24.8451 9.77535 25.0379 9.45271 24.9532C3.92353 23.5005 0 18.4827 0 12.6843C0 11.491 0.164973 10.319 0.486762 9.19284ZM24.1498 8.82123C24.4709 8.7308 24.8045 8.91779 24.895 9.23889C25.2082 10.351 25.3687 11.5073 25.3687 12.6843C25.3687 18.524 21.3895 23.568 15.8065 24.9814C15.4831 25.0633 15.1546 24.8675 15.0728 24.5441C14.9909 24.2207 15.1867 23.8922 15.5101 23.8103C20.5601 22.5319 24.1606 17.9677 24.1606 12.6843C24.1606 11.6183 24.0154 10.5722 23.7322 9.56637C23.6417 9.24527 23.8287 8.91166 24.1498 8.82123ZM12.6843 4.83213C8.34768 4.83213 4.83213 8.34768 4.83213 12.6843C4.83213 17.021 8.34768 20.5365 12.6843 20.5365C17.021 20.5365 20.5365 17.021 20.5365 12.6843C20.5365 8.34768 17.021 4.83213 12.6843 4.83213Z" fill="#007AFF"/>
</svg>
