<svg width="234" height="50" viewBox="0 0 234 50" fill="none" xmlns="http://www.w3.org/2000/svg">
<path fill-rule="evenodd" clip-rule="evenodd" d="M8.46303 30.5301C8.46303 35.4196 5.9718 38.8385 0.989349 40.7867L0.653503 40.9144C0.135498 41.1059 -0.129181 41.6811 0.0623169 42.1991C0.134125 42.3933 0.264481 42.5605 0.435364 42.6775C2.19588 43.8827 5.03616 44.5809 8.95622 44.7719C10.0843 47.8244 13.0196 50 16.463 50H226C230.418 50 234 46.4183 234 42L234 8C234 3.58172 230.418 0 226 0L16.828 0C12.4601 0 8.89963 3.50345 8.82907 7.87078L8.46303 30.5301Z" fill="#FAFAFA"/>
</svg>
