<svg width="16" height="24" viewBox="0 0 16 24" fill="none" xmlns="http://www.w3.org/2000/svg">
<path fill-rule="evenodd" clip-rule="evenodd" d="M7.99999 0C10.5328 0 12.586 2.05321 12.586 4.58598V11.7197C12.586 14.2525 10.5328 16.3057 7.99999 16.3057C5.46722 16.3057 3.41401 14.2525 3.41401 11.7197V4.58598C3.41401 2.05321 5.46722 0 7.99999 0ZM0.611465 10.5257C0.915397 10.5257 1.16754 10.7475 1.21493 11.038L1.22293 11.1372V11.2717C1.22293 15.0832 4.25935 18.169 7.99999 18.169C11.661 18.169 14.6475 15.2131 14.773 11.5139L14.7771 11.2717V11.1478C14.7771 10.8101 15.0508 10.5363 15.3885 10.5363C15.6925 10.5363 15.9446 10.7581 15.992 11.0486L16 11.1478L15.9962 11.5245C15.8709 15.6831 12.664 19.0579 8.61132 19.3686L8.61146 22.9299C8.61146 23.2676 8.3377 23.5414 7.99999 23.5414C7.69606 23.5414 7.44392 23.3196 7.39653 23.0291L7.38853 22.9299L7.38901 19.3686C3.33869 19.0582 0.133196 15.6875 0.00404601 11.5323L0 11.1372C0 10.7995 0.273762 10.5257 0.611465 10.5257ZM4.63694 4.58598C4.63694 2.72862 6.14263 1.22293 7.99999 1.22293C9.85736 1.22293 11.363 2.72862 11.363 4.58598V11.7197C11.363 13.5771 9.85736 15.0828 7.99999 15.0828C6.14263 15.0828 4.63694 13.5771 4.63694 11.7197V4.58598Z" fill="#007AFF"/>
</svg>
