<svg width="163" height="34" viewBox="0 0 163 34" fill="none" xmlns="http://www.w3.org/2000/svg">
<path fill-rule="evenodd" clip-rule="evenodd" d="M154 14.5301C154 19.4196 156.491 22.8385 161.474 24.7867L161.81 24.9144C162.328 25.1059 162.592 25.6811 162.401 26.1991C162.329 26.3933 162.199 26.5605 162.028 26.6775C160.267 27.8827 157.427 28.5809 153.507 28.7719C152.379 31.8244 149.443 34 146 34H8C3.58173 34 0 30.4183 0 26V8C0 3.58172 3.58172 0 8 0L145.774 0C150.086 0 153.623 3.41846 153.769 7.72862L154 14.5301Z" fill="#DCF7C5"/>
</svg>
