<svg width="16" height="16" viewBox="0 0 16 16" fill="none" xmlns="http://www.w3.org/2000/svg">
<path fill-rule="evenodd" clip-rule="evenodd" d="M12.5 0C14.433 0 16 1.567 16 3.5V12.5C16 14.433 14.433 16 12.5 16H3.5C1.567 16 0 14.433 0 12.5V3.5C0 1.567 1.567 0 3.5 0H12.5ZM12.5 1H3.5C2.11929 1 1 2.11929 1 3.5V12.5C1 12.5847 1.00422 12.6685 1.01245 12.751L4.84165 8.92311C5.23217 8.53258 5.86534 8.53258 6.25586 8.92311L7.47836 10.1456L10.976 6.64798C11.3665 6.25745 11.9997 6.25745 12.3902 6.64798L15 9.258V3.5C15 2.11929 13.8807 1 12.5 1ZM8 5C8 3.89543 7.10457 3 6 3C4.89543 3 4 3.89543 4 5C4 6.10457 4.89543 7 6 7C7.10457 7 8 6.10457 8 5Z" fill="white"/>
</svg>
