<svg width="23" height="23" viewBox="0 0 23 23" fill="none" xmlns="http://www.w3.org/2000/svg">
<path fill-rule="evenodd" clip-rule="evenodd" d="M21.8241 0.364923L21.7295 0.279394C21.2401 -0.11974 20.5182 -0.0912307 20.0621 0.364923L18.8881 1.53886L21.4577 4.10845L22.6317 2.93451L22.7172 2.83989C23.1163 2.35052 23.0878 1.62866 22.6317 1.17251L21.8241 0.364923ZM18.4352 1.99037L19.1695 2.72441C19.1695 2.72441 10.8157 11.0297 10.4064 11.4889C10.2269 11.6903 10.1748 11.9541 10.173 12.1868C10.1702 12.532 10.4508 12.8032 10.796 12.8057C11.0395 12.8074 11.3145 12.7619 11.5077 12.5902C11.9358 12.2097 20.2707 3.82566 20.2707 3.82566L21.0048 4.55996L11.5411 14.0251C11.1487 14.4174 10.3243 14.6527 9.06779 14.7309L8.79192 14.7453H8.74801C8.49338 14.7345 8.28937 14.5421 8.25569 14.2983L8.25128 14.2047L8.26565 13.9288C8.33829 12.762 8.54634 11.9678 8.88981 11.5462L8.97148 11.4555L18.4352 1.99037ZM15.3218 3.27288L13.7633 4.83028H2.07654C1.78983 4.83028 1.55741 5.06271 1.55741 5.34942V20.9235C1.55741 21.2102 1.78983 21.4426 2.07654 21.4426H17.6506C17.9373 21.4426 18.1697 21.2102 18.1697 20.9235V9.23463L19.7271 7.67826V20.9235C19.7271 22.0703 18.7974 23 17.6506 23H2.07654C0.929699 23 0 22.0703 0 20.9235V5.34942C0 4.20257 0.929699 3.27288 2.07654 3.27288H15.3218Z" fill="#007AFF"/>
</svg>
