<svg width="18" height="15" viewBox="0 0 18 15" fill="none" xmlns="http://www.w3.org/2000/svg">
<path fill-rule="evenodd" clip-rule="evenodd" d="M10.0631 0C10.6205 0 11.1527 0.232674 11.5313 0.641916L13.25 2.5H15C16.3807 2.5 17.5 3.61929 17.5 5V12.5C17.5 13.8807 16.3807 15 15 15H2.5C1.11929 15 0 13.8807 0 12.5V5C0 3.61929 1.11929 2.5 2.5 2.5H4.25L5.96873 0.641916C6.34728 0.232674 6.87945 0 7.43693 0H10.0631ZM8.75 4C6.40279 4 4.5 5.90279 4.5 8.25C4.5 10.5972 6.40279 12.5 8.75 12.5C11.0972 12.5 13 10.5972 13 8.25C13 5.90279 11.0972 4 8.75 4ZM8.75 5C10.5449 5 12 6.45507 12 8.25C12 10.0449 10.5449 11.5 8.75 11.5C6.95507 11.5 5.5 10.0449 5.5 8.25C5.5 6.45507 6.95507 5 8.75 5Z" fill="#007AFF"/>
</svg>
