<svg width="15" height="19" viewBox="0 0 15 19" fill="none" xmlns="http://www.w3.org/2000/svg">
<path fill-rule="evenodd" clip-rule="evenodd" d="M8.06956 0.510741C8.02231 0.22108 7.77093 0 7.46791 0C7.13123 0 6.85829 0.272939 6.85829 0.609626L6.85727 10.6359L5.16217 8.94011L5.07774 8.86957C4.84014 8.70498 4.51165 8.72849 4.30003 8.94011C4.06195 9.17819 4.06195 9.56418 4.30003 9.80226L7.03684 12.5391L7.12127 12.6096C7.35887 12.7742 7.68736 12.7507 7.89898 12.5391L10.6358 9.80226L10.7063 9.71783C10.8709 9.48023 10.8474 9.15174 10.6358 8.94011L10.5514 8.86957C10.3138 8.70498 9.98528 8.72849 9.77366 8.94011L8.07652 10.6359L8.07754 0.609626L8.06956 0.510741ZM4.52139 4.41979C4.52139 4.0831 4.24845 3.81016 3.91176 3.81016H1.62567L1.4777 3.8168C0.649212 3.89156 0 4.58788 0 5.43583V17.3743L0.00664358 17.5223C0.0813954 18.3508 0.777716 19 1.62567 19H13.3102L13.4581 18.9934C14.2866 18.9186 14.9358 18.2223 14.9358 17.3743V5.43583L14.9292 5.28786C14.8544 4.45937 14.1581 3.81016 13.3102 3.81016H11.0241L10.9252 3.81814C10.6355 3.86539 10.4144 4.11677 10.4144 4.41979C10.4144 4.75647 10.6874 5.02941 11.0241 5.02941H13.3102L13.3921 5.03767C13.5773 5.07557 13.7166 5.23943 13.7166 5.43583V17.3743L13.7083 17.4562C13.6704 17.6414 13.5066 17.7807 13.3102 17.7807H1.62567L1.54376 17.7725C1.35856 17.7346 1.21925 17.5707 1.21925 17.3743V5.43583L1.22751 5.35392C1.26541 5.16872 1.42927 5.02941 1.62567 5.02941H3.91176L4.01065 5.02143C4.30031 4.97419 4.52139 4.7228 4.52139 4.41979Z" fill="white"/>
</svg>
