<svg width="19" height="19" viewBox="0 0 19 19" fill="none" xmlns="http://www.w3.org/2000/svg">
<path fill-rule="evenodd" clip-rule="evenodd" d="M19 3.85135C19 1.72431 17.2757 0 15.1486 0C13.0216 0 11.2973 1.72431 11.2973 3.85135C11.2973 5.97839 13.0216 7.7027 15.1486 7.7027C17.2757 7.7027 19 5.97839 19 3.85135ZM10.0135 2.56757H4.10811L3.90307 2.5726C1.72948 2.67943 0 4.47558 0 6.67568V14.8919L0.00502761 15.0969C0.111865 17.2705 1.90802 19 4.10811 19H12.3243L12.5294 18.995C14.703 18.8881 16.4324 17.092 16.4324 14.8919V8.98649H15.4054V14.8919L15.4002 15.0729C15.3065 16.6903 13.9652 17.973 12.3243 17.973H4.10811L3.92707 17.9677C2.3097 17.874 1.02703 16.5328 1.02703 14.8919V6.67568L1.03226 6.49464C1.12597 4.87727 2.46725 3.59459 4.10811 3.59459H10.0135V2.56757Z" fill="white"/>
</svg>
