<svg width="25" height="25" viewBox="0 0 25 25" fill="none" xmlns="http://www.w3.org/2000/svg">
<path fill-rule="evenodd" clip-rule="evenodd" d="M21.0124 5.39443L20.9052 5.27116L21.4223 4.91979L21.5044 4.82269C21.736 4.48992 21.6991 4.05604 21.4223 3.77926C21.1074 3.46432 20.5968 3.46432 20.2818 3.77926L19.7459 4.10886L19.6053 3.98651C19.0031 3.48337 18.3467 3.04302 17.6463 2.67592L17.4627 2.58366L17.674 2.04408L17.7108 1.93548C17.8086 1.53821 17.6119 1.14163 17.2468 0.98662C16.8368 0.812592 16.3633 1.00387 16.1893 1.41386L15.9667 1.96572L15.8107 1.91396C15.072 1.68318 14.3001 1.52768 13.5044 1.4569L13.2994 1.44254L13.3064 0.806497L13.2979 0.692127C13.2326 0.288222 12.8967 0 12.5 0C12.0546 0 11.6935 0.36106 11.6935 0.80645V1.44153L11.4941 1.4563C10.696 1.52806 9.92244 1.68439 9.18315 1.91626L9.00099 1.9758L8.82416 1.4235L8.77339 1.32071C8.56163 0.970639 8.14216 0.829255 7.77433 0.977867C7.36137 1.14471 7.16186 1.61474 7.32871 2.0277L7.51813 2.59173L7.34779 2.67837C6.64921 3.0456 5.99465 3.48522 5.39443 3.98753L5.25805 4.10483L4.81898 3.67849L4.72188 3.59631C4.38911 3.36479 3.95523 3.40168 3.67845 3.67845C3.36352 3.99339 3.36352 4.50401 3.67845 4.81895L4.11693 5.24394L3.98651 5.39463C3.48337 5.99684 3.04302 6.65323 2.67592 7.35367L2.58568 7.53124L2.04408 7.32597L1.93548 7.28918C1.53821 7.19139 1.14163 7.38802 0.98662 7.7532C0.812592 8.16318 1.00387 8.63662 1.41386 8.81065L1.96875 9.02216L1.91399 9.18913C1.66419 9.98874 1.50257 10.8273 1.44109 11.6935H0.806497L0.692127 11.7021C0.288222 11.7673 0 12.1033 0 12.5C0 12.9454 0.36106 13.3064 0.80645 13.3064L1.44153 13.3054L1.45612 13.5039C1.52757 14.3 1.68315 15.0718 1.91386 15.8094L1.96975 15.9778L1.41391 16.1893L1.31197 16.2419C0.965652 16.4597 0.831612 16.8816 0.98662 17.2468C1.16065 17.6567 1.63408 17.848 2.04407 17.674L2.58568 17.4677L2.6752 17.6461C3.04292 18.3467 3.48342 19.003 3.98691 19.6048L4.11088 19.7469L3.67849 20.181L3.59631 20.2781C3.36479 20.6108 3.40168 21.0447 3.67845 21.3215C3.99339 21.6364 4.50401 21.6364 4.81895 21.3215L5.24999 20.8881L5.39463 21.0134C5.99684 21.5166 6.65323 21.9569 7.35367 22.324L7.53829 22.4163L7.32597 22.9559L7.28918 23.0645C7.19139 23.4617 7.38802 23.8583 7.7532 24.0133C8.16318 24.1874 8.63662 23.9961 8.81065 23.5861L9.02922 23.0322L9.18913 23.086C9.92762 23.3167 10.6993 23.4722 11.4953 23.5436L11.6935 23.5574V24.1935L11.7021 24.3078C11.7673 24.7117 12.1033 25 12.5 25C12.9454 25 13.3064 24.6389 13.3064 24.1935L13.3054 23.5574L13.505 23.5437C14.3033 23.472 15.0772 23.3157 15.8167 23.0837L15.9929 23.0241L16.1758 23.5764L16.2266 23.6792C16.4383 24.0293 16.8578 24.1707 17.2256 24.0221C17.6386 23.8552 17.8381 23.3852 17.6712 22.9723L17.4768 22.4092L17.6522 22.3216C18.3507 21.9543 19.0053 21.5147 19.6055 21.0124L19.7409 20.8941L20.181 21.3215L20.2781 21.4036C20.6108 21.6352 21.0447 21.5983 21.3215 21.3215C21.6364 21.0066 21.6364 20.4959 21.3215 20.181L20.882 19.756L21.0134 19.6053C21.5166 19.0031 21.9569 18.3467 22.324 17.6463L22.4082 17.4768L22.9559 17.674L23.0645 17.7108C23.4617 17.8086 23.8583 17.6119 24.0133 17.2468C24.1874 16.8368 23.9961 16.3633 23.5861 16.1893L23.0282 15.9818L23.0319 15.979C23.2926 15.1895 23.4669 14.3608 23.5436 13.5044L23.5574 13.3054L24.1935 13.3064L24.3078 13.2979C24.7117 13.2326 25 12.8967 25 12.5C25 12.0546 24.6389 11.6935 24.1935 11.6935L23.5574 11.6925L23.5437 11.4941C23.4719 10.696 23.3156 9.92244 23.0837 9.18315L23.0322 9.02821L23.5764 8.82416L23.6792 8.77339C24.0293 8.56163 24.1707 8.14216 24.0221 7.77433C23.8552 7.36137 23.3852 7.16186 22.9723 7.32871L22.4102 7.52317L22.3216 7.34779C21.9543 6.64921 21.5147 5.99465 21.0124 5.39443ZM12.2606 2.62381L12.5 2.62096L12.9044 2.62909L13.3047 2.65327L13.8794 2.71651L14.1471 2.75766L14.4152 2.80629C18.9512 3.69433 22.379 7.69686 22.379 12.5L22.3732 12.84L22.3528 13.2244L22.3267 13.5229L22.2842 13.8739L22.2192 14.2791C22.1704 14.5474 22.1108 14.8119 22.0408 15.0722L21.9238 15.4731L21.8586 15.6724L21.7523 15.9703C20.5686 19.1247 17.8179 21.5129 14.4483 22.1869L14.1471 22.2423L13.9617 22.2716L13.5512 22.3237L13.4179 22.3369L13.0986 22.3611L12.7765 22.3752L12.5 22.379L11.9017 22.3612L11.6762 22.3451L11.2894 22.3056L10.8296 22.2384L10.6313 22.2025L10.227 22.1162C9.69191 21.9902 9.17364 21.8208 8.67609 21.6117L8.26278 21.4267L7.93217 21.2618L7.66226 21.1154L7.47396 21.0067L7.21953 20.8508L7.00328 20.7098L6.70415 20.5011C5.22878 19.4305 4.06105 17.9618 3.35868 16.2527L3.20865 15.8644L3.14134 15.6724L3.06022 15.422L2.97776 15.1404C2.9255 14.9515 2.87871 14.7604 2.83757 14.5671L2.75016 14.1018L2.72779 13.9579L2.70833 13.8195L2.66007 13.385C2.63418 13.0935 2.62096 12.7983 2.62096 12.5C2.62096 11.5875 2.74468 10.7039 2.97625 9.86503L3.09753 9.45997L3.18593 9.19896L3.32441 8.83176C3.80952 7.61942 4.52794 6.52564 5.42415 5.60595L5.70966 5.32453L6.08059 4.99065C6.27605 4.8234 6.47813 4.66364 6.68636 4.51183L7.04541 4.26202L7.21953 4.14912L7.5524 3.94727L7.8116 3.80218L8.09281 3.65607L8.44036 3.49095C8.67453 3.38527 8.91355 3.28844 9.15701 3.20091L9.53354 3.07409L9.73626 3.01275L9.98699 2.94343L10.3257 2.86101L10.6313 2.79744L10.9816 2.73692L11.2298 2.70187L11.517 2.66925L11.7343 2.65019L12.2606 2.62381ZM18.0117 13.1046L21.3507 13.1043C21.04 17.7217 17.1962 21.3709 12.5 21.3709C11.2274 21.3709 10.0175 21.103 8.92344 20.6204L8.59876 20.4693L10.2673 17.5764C10.9504 17.8773 11.7057 18.0443 12.5 18.0443C15.2783 18.0443 17.5793 16.0007 17.9819 13.3346L18.0117 13.1046ZM9.22091 8.02878L7.55111 5.13665L7.30928 5.30539C5.07979 6.91673 3.62903 9.53893 3.62903 12.5C3.62903 15.5668 5.18526 18.2701 7.55111 19.8633L9.22091 16.9712L9.02799 16.8229C7.76435 15.8066 6.95563 14.2478 6.95563 12.5C6.95563 10.6648 7.84724 9.03789 9.22091 8.02878ZM12.5 8.16531C14.8939 8.16531 16.8346 10.106 16.8346 12.5C16.8346 14.8939 14.8939 16.8346 12.5 16.8346C10.106 16.8346 8.16531 14.8939 8.16531 12.5C8.16531 10.106 10.106 8.16531 12.5 8.16531ZM21.3292 11.6344C20.8941 7.14129 17.1072 3.62903 12.5 3.62903C11.1002 3.62903 9.77611 3.95324 8.59876 4.53068L10.2673 7.42351L10.5268 7.31703C11.1398 7.08351 11.805 6.95563 12.5 6.95563C15.3573 6.95563 17.7099 9.11714 18.0116 11.8943L21.3506 11.8946L21.3292 11.6344Z" fill="#007AFF"/>
</svg>
