<svg width="15" height="18" viewBox="0 0 15 18" fill="none" xmlns="http://www.w3.org/2000/svg">
<path fill-rule="evenodd" clip-rule="evenodd" d="M14.6413 13.3744C14.6412 14.606 13.7729 15.6573 12.5813 15.9019L12.4169 15.9302C11.013 16.1259 9.66136 15.7802 9.38739 14.7577C9.11342 13.7353 9.96499 12.7316 11.3642 12.3567C11.9677 12.195 12.5813 12.2276 13.1281 12.2276L13.1273 4.43955L5.30333 6.61443L5.30375 15.3919C5.30375 16.6235 4.43536 17.6748 3.2438 17.9194L3.07936 17.9477C1.67554 18.1434 0.323859 17.7977 0.0498909 16.7752C-0.224077 15.7528 0.656154 14.7424 2.05532 14.3675C2.65891 14.2058 3.2438 14.2451 3.82536 14.2451L3.79062 3.20214L3.82536 3.20156C3.91651 2.86367 4.17978 2.58958 4.52921 2.49245L13.3623 0.0371059C13.8991 -0.112101 14.4552 0.202082 14.6044 0.738853C14.6289 0.826824 14.6413 0.917708 14.6413 1.00902V13.3744Z" fill="white"/>
</svg>
