<svg width="23" height="23" viewBox="0 0 23 23" fill="none" xmlns="http://www.w3.org/2000/svg">
<path fill-rule="evenodd" clip-rule="evenodd" d="M21.9811 21.027C22.2093 20.8183 22.4054 20.5768 22.563 20.3106C23.4439 18.8217 22.951 16.9005 21.4621 16.0196L18.1188 14.0414L17.9526 13.951C17.1655 13.5587 16.2288 13.5849 15.4611 14.0309L14.4194 14.6363L14.2983 14.699C13.7654 14.9437 13.1297 14.8348 12.7083 14.4134L8.58659 10.2917L8.49492 10.1908C8.12185 9.73831 8.06436 9.09587 8.36374 8.58063L8.96905 7.53889C9.44696 6.7164 9.44294 5.69983 8.95854 4.88114L6.98042 1.53787C6.09948 0.0489403 4.17831 -0.443917 2.68939 0.437038C2.42315 0.594562 2.18172 0.790653 1.97295 1.01893C0.48712 2.64357 -0.177995 4.19043 0.04071 5.65722C0.488911 8.66315 2.60223 12.0965 6.35686 15.9945L6.68293 16.3166L7.00551 16.6431L7.01186 16.6384C10.9034 20.3978 14.3368 22.5111 17.3428 22.9593C18.8096 23.178 20.3564 22.5129 21.9811 21.027ZM21.1627 20.1322C19.7676 21.4081 18.5608 21.9149 17.5216 21.76C14.91 21.3706 11.8021 19.5053 8.21467 16.1109L7.62352 15.5434L7.20905 15.1319C3.61834 11.4036 1.64212 8.17516 1.24002 5.47839C1.08507 4.43918 1.59186 3.23235 2.86774 1.83726C2.9957 1.69735 3.14367 1.57717 3.30685 1.48062C4.21941 0.94068 5.3969 1.24275 5.93683 2.15532L7.91496 5.4986C8.17579 5.93943 8.17795 6.48682 7.92062 6.9297L7.31531 7.97144C6.76225 8.92325 6.86221 10.1166 7.55934 10.9622L7.68913 11.1071L11.8509 15.2708C12.6293 16.0492 13.8085 16.2583 14.8044 15.801L14.9777 15.7126L16.0703 15.0794C16.4823 14.84 16.9867 14.8244 17.4117 15.0362L17.5393 15.1065L20.8447 17.0631C21.7572 17.6031 22.0593 18.7806 21.5194 19.6931C21.4228 19.8563 21.3026 20.0043 21.1627 20.1322Z" fill="#545458" fill-opacity="0.65"/>
</svg>
