<svg width="26" height="25" viewBox="0 0 26 25" fill="none" xmlns="http://www.w3.org/2000/svg">
<path fill-rule="evenodd" clip-rule="evenodd" d="M21.7629 3.8259C19.3915 1.39585 16.1481 0 12.6832 0C9.21939 0 5.97604 1.39585 3.60456 3.8259C3.37158 4.06464 3.37624 4.44706 3.61498 4.68004C3.85373 4.91303 4.23614 4.90837 4.46913 4.66962C6.61554 2.4702 9.54827 1.20803 12.6832 1.20803L13.0318 1.21321C16.0354 1.30281 18.8315 2.55166 20.8984 4.66962C21.1314 4.90837 21.5138 4.91303 21.7525 4.68004C21.9913 4.44706 21.9959 4.06464 21.7629 3.8259ZM21.7446 12.6844C21.7446 7.68052 17.6882 3.6241 12.6844 3.6241C7.68052 3.6241 3.6241 7.68052 3.6241 12.6844C3.6241 17.6882 7.68052 21.7446 12.6844 21.7446C17.6882 21.7446 21.7446 17.6882 21.7446 12.6844ZM0.486762 9.19286C0.578412 8.87211 0.912731 8.68638 1.23348 8.77803C1.55424 8.86968 1.73996 9.204 1.64831 9.52475C1.35728 10.5433 1.20803 11.6036 1.20803 12.6844C1.20803 17.9304 4.75826 22.4708 9.75969 23.7848C10.0823 23.8696 10.2752 24.1999 10.1904 24.5225C10.1056 24.8451 9.77536 25.038 9.45272 24.9532C3.92354 23.5006 0 18.4827 0 12.6844C0 11.491 0.164973 10.319 0.486762 9.19286ZM24.1499 8.82125C24.471 8.73082 24.8046 8.91781 24.895 9.23891C25.2082 10.351 25.3687 11.5073 25.3687 12.6844C25.3687 18.524 21.3896 23.5681 15.8066 24.9814C15.4832 25.0633 15.1546 24.8675 15.0728 24.5441C14.9909 24.2207 15.1867 23.8922 15.5101 23.8103C20.5601 22.5319 24.1607 17.9678 24.1607 12.6844C24.1607 11.6183 24.0155 10.5722 23.7322 9.56638C23.6418 9.24529 23.8288 8.91168 24.1499 8.82125ZM12.6844 4.83214C8.34769 4.83214 4.83214 8.34769 4.83214 12.6844C4.83214 17.021 8.34769 20.5366 12.6844 20.5366C17.021 20.5366 20.5366 17.021 20.5366 12.6844C20.5366 8.34769 17.021 4.83214 12.6844 4.83214Z" fill="#545458" fill-opacity="0.65"/>
</svg>
