<svg width="16" height="17" viewBox="0 0 16 17" fill="none" xmlns="http://www.w3.org/2000/svg">
<path fill-rule="evenodd" clip-rule="evenodd" d="M5.24727 4.59354C5.46982 4.42943 5.52171 4.11819 5.36444 3.89076L2.8205 0.211801C2.67342 -0.000901945 2.39262 -0.068425 2.17996 0.0787148C1.32549 0.669918 -0.602014 2.35288 0.184791 5.0972C1.18383 8.58178 4.49573 12.1333 4.49573 12.1333C4.49573 12.1333 9.28882 16.5526 11.5279 16.5526C12.7808 16.5526 13.5038 16.5604 14.9799 15.0565C15.0658 14.9689 15.6202 14.2678 15.9141 13.8946C16.0233 13.7558 16.0211 13.5681 15.9483 13.4073C15.5284 12.4788 12.6657 11.1535 11.6546 10.7089C11.4455 10.6169 11.2037 10.6801 11.0614 10.8588L10.2601 11.8653C9.92381 12.2876 9.32066 12.3721 8.90457 12.0281C8.33279 11.5555 7.50057 10.8102 6.6324 9.83661C5.65469 8.74012 4.69383 7.47183 4.10619 6.66831C3.7796 6.22174 3.88235 5.6001 4.32762 5.27174L5.24727 4.59354Z" fill="#007AFF"/>
</svg>
