<svg width="20" height="16" viewBox="0 0 20 16" fill="none" xmlns="http://www.w3.org/2000/svg">
<path fill-rule="evenodd" clip-rule="evenodd" d="M9.95664 0.433141C10.0175 0.518368 10.0502 0.620486 10.0502 0.725221V15.3552C10.0502 15.6327 9.82526 15.8577 9.54773 15.8577C9.44299 15.8577 9.34087 15.825 9.25565 15.7641L3.01507 11.3065H1.00502C0.449964 11.3065 0 10.8566 0 10.3015V5.77889C0 5.22383 0.449964 4.77386 1.00502 4.77386H3.01507L9.25565 0.31631C9.48148 0.154999 9.79533 0.207306 9.95664 0.433141ZM16.3365 0.140039C16.5367 -0.0521778 16.8548 -0.0457148 17.047 0.154474C18.9762 2.1637 20 4.76451 20 7.61629C20 10.3129 18.9466 12.8664 17.0523 14.9141C16.8638 15.1178 16.5459 15.1302 16.3421 14.9417C16.1384 14.7533 16.1261 14.4353 16.3145 14.2316C18.0412 12.3652 18.995 10.0531 18.995 7.61629C18.995 5.02133 18.0697 2.67061 16.3221 0.850551C16.1299 0.650362 16.1363 0.332255 16.3365 0.140039ZM14.0246 2.15009C14.2248 1.95787 14.5429 1.96433 14.7351 2.16452C16.1391 3.62671 16.8844 5.52016 16.8844 7.59383C16.8844 9.55706 16.1178 11.4155 14.7407 12.904C14.5522 13.1078 14.2343 13.1201 14.0306 12.9317C13.8269 12.7432 13.8145 12.4253 14.003 12.2216C15.2123 10.9143 15.8794 9.29728 15.8794 7.59383C15.8794 5.77697 15.2325 4.13362 14.0102 2.8606C13.818 2.66041 13.8244 2.3423 14.0246 2.15009ZM12.0102 3.8859C12.2231 3.70784 12.54 3.73607 12.7181 3.94895C13.5394 4.93087 13.9728 6.19491 13.9728 7.57418C13.9728 8.88162 13.527 10.1222 12.7234 11.1193C12.5493 11.3354 12.2329 11.3694 12.0168 11.1953C11.8008 11.0211 11.7668 10.7048 11.9409 10.4887C12.6018 9.66859 12.9678 8.65007 12.9678 7.57418C12.9678 6.4246 12.613 5.38972 11.9472 4.59376C11.7691 4.38088 11.7973 4.06396 12.0102 3.8859Z" fill="white"/>
</svg>
