<svg width="15" height="14" viewBox="0 0 15 14" fill="none" xmlns="http://www.w3.org/2000/svg">
<path fill-rule="evenodd" clip-rule="evenodd" d="M14.1656 6.56159C15.4997 4.43562 15.1975 2.36713 13.5201 0.959648C11.7849 -0.496367 9.19788 -0.270034 7.74187 1.46518L7.44159 1.82206L7.14143 1.46518C5.68542 -0.270034 3.09842 -0.496367 1.36321 0.959648C-0.372003 2.41566 -0.348442 4.30267 0.857679 6.73787C1.66176 8.36134 3.8566 10.6265 7.44219 13.5335C11.0351 10.3029 13.2762 7.9789 14.1656 6.56159ZM7.40309 11.9086L6.76142 11.3668C4.16661 9.14672 2.55795 7.3985 1.96028 6.19177C0.918056 4.08748 0.994266 2.87544 2.15411 1.90221C3.36876 0.883001 5.17966 1.04143 6.19887 2.25608L7.44139 3.73344L8.68336 2.25735C9.70364 1.04143 11.5145 0.883001 12.7292 1.90221C13.9482 2.92505 14.1204 4.31885 13.1234 5.90756C12.4299 7.01272 10.7241 8.83659 8.03988 11.3231L7.40309 11.9086Z" fill="white"/>
</svg>
