<svg width="12" height="12" viewBox="0 0 12 12" fill="none" xmlns="http://www.w3.org/2000/svg">
<path d="M5.88338 0.00672773L6 0C6.51284 0 6.93551 0.38604 6.99327 0.883379L7 1V5H11C11.5128 5 11.9355 5.38604 11.9933 5.88338L12 6C12 6.51284 11.614 6.93551 11.1166 6.99327L11 7H7V11C7 11.5128 6.61396 11.9355 6.11662 11.9933L6 12C5.48716 12 5.06449 11.614 5.00673 11.1166L5 11V7H1C0.487164 7 0.0644928 6.61396 0.00672773 6.11662L0 6C0 5.48716 0.38604 5.06449 0.883379 5.00673L1 5H5V1C5 0.487164 5.38604 0.0644928 5.88338 0.00672773L6 0L5.88338 0.00672773Z" fill="white"/>
</svg>
