<svg width="20" height="21" viewBox="0 0 20 21" fill="none" xmlns="http://www.w3.org/2000/svg">
<path fill-rule="evenodd" clip-rule="evenodd" d="M17.0861 2.91951C15.206 1.03785 12.7057 0.00105762 10.0417 0C4.55293 0 0.085694 4.46552 0.0834974 9.95439C0.0827923 11.7089 0.541336 13.4216 1.41276 14.9312L0 20.0899L5.27899 18.7056C6.73351 19.4986 8.37108 19.9166 10.0378 19.9173H10.0419C15.5301 19.9173 19.9978 15.4512 20 9.96231C20.0011 7.30235 18.9662 4.80117 17.0861 2.91951ZM10.0419 18.236H10.0385C8.55329 18.2354 7.0966 17.8366 5.82581 17.0827L5.52355 16.9034L2.39092 17.7248L3.22708 14.6715L3.03023 14.3585C2.20171 13.0411 1.76413 11.5184 1.76478 9.95504C1.76657 5.39295 5.47959 1.68134 10.0451 1.68134C12.2558 1.68218 14.3339 2.544 15.8966 4.10794C17.4593 5.67188 18.3194 7.7508 18.3186 9.96168C18.3168 14.5242 14.6039 18.236 10.0419 18.236ZM12.8816 11.2297C13.1097 11.3127 14.333 11.9145 14.5819 12.039C14.6304 12.0633 14.6758 12.0852 14.7179 12.1056C14.8915 12.1894 15.0087 12.2461 15.0588 12.3296C15.121 12.4333 15.121 12.9313 14.9136 13.5124C14.7062 14.0934 13.7122 14.6238 13.2341 14.6952C12.8054 14.7592 12.2629 14.7859 11.6669 14.5966C11.3055 14.482 10.8421 14.3289 10.2484 14.0726C7.91618 13.0659 6.33996 10.8063 6.0416 10.3786C6.02064 10.3486 6.00599 10.3276 5.99782 10.3167L5.99581 10.314C5.86414 10.1384 4.98183 8.9615 4.98183 7.74356C4.98183 6.59776 5.54483 5.9972 5.80397 5.72077C5.82173 5.70183 5.83806 5.68441 5.85268 5.66844C6.08075 5.41941 6.35033 5.35718 6.51619 5.35718C6.68204 5.35718 6.84809 5.35869 6.99306 5.36591C7.01093 5.3668 7.02951 5.36669 7.04872 5.36657C7.19374 5.36571 7.37459 5.36463 7.55292 5.79294C7.62155 5.95778 7.72198 6.2022 7.82791 6.45996C8.042 6.98097 8.2785 7.55652 8.3201 7.63981C8.38231 7.76431 8.4238 7.90958 8.34084 8.0756C8.32847 8.10037 8.31702 8.12376 8.30607 8.1461C8.24369 8.2735 8.19786 8.36707 8.09203 8.49062C8.05052 8.53909 8.00761 8.59132 7.9647 8.64356C7.87903 8.74786 7.79337 8.85214 7.7188 8.92638C7.59425 9.05042 7.46454 9.18501 7.60968 9.43404C7.75482 9.68309 8.25423 10.4977 8.99388 11.1572C9.78902 11.8662 10.4801 12.1659 10.8304 12.3178C10.8988 12.3474 10.9542 12.3715 10.9948 12.3918C11.2436 12.5163 11.3888 12.4956 11.5339 12.3295C11.6791 12.1636 12.156 11.6033 12.3218 11.3543C12.4877 11.1052 12.6536 11.1467 12.8816 11.2297Z" fill="white"/>
</svg>
