<svg width="25" height="25" viewBox="0 0 25 25" fill="none" xmlns="http://www.w3.org/2000/svg">
<path fill-rule="evenodd" clip-rule="evenodd" d="M21.0124 5.39443L20.9052 5.27116L21.4223 4.91979L21.5044 4.82269C21.736 4.48992 21.6991 4.05604 21.4223 3.77926C21.1074 3.46432 20.5968 3.46432 20.2818 3.77926L19.7459 4.10886L19.6053 3.98651C19.0031 3.48337 18.3467 3.04302 17.6463 2.67592L17.4627 2.58366L17.674 2.04408L17.7108 1.93548C17.8086 1.53821 17.6119 1.14163 17.2468 0.98662C16.8368 0.812592 16.3633 1.00387 16.1893 1.41386L15.9667 1.96572L15.8107 1.91396C15.072 1.68318 14.3001 1.52768 13.5044 1.4569L13.2994 1.44254L13.3064 0.806497L13.2979 0.692127C13.2326 0.288222 12.8967 0 12.5 0C12.0546 0 11.6935 0.36106 11.6935 0.80645V1.44153L11.4941 1.4563C10.696 1.52806 9.92244 1.68439 9.18315 1.91626L9.00099 1.9758L8.82416 1.4235L8.77339 1.32071C8.56163 0.970639 8.14216 0.829255 7.77433 0.977867C7.36137 1.14471 7.16186 1.61474 7.32871 2.0277L7.51813 2.59173L7.34779 2.67837C6.64921 3.0456 5.99465 3.48522 5.39443 3.98753L5.25805 4.10483L4.81898 3.67849L4.72188 3.59631C4.38911 3.36479 3.95523 3.40168 3.67845 3.67845C3.36352 3.99339 3.36352 4.50401 3.67845 4.81895L4.11693 5.24394L3.98651 5.39463C3.48337 5.99684 3.04302 6.65323 2.67592 7.35367L2.58568 7.53124L2.04408 7.32597L1.93548 7.28918C1.53821 7.19139 1.14163 7.38802 0.98662 7.7532C0.812592 8.16318 1.00387 8.63662 1.41386 8.81065L1.96875 9.02216L1.91399 9.18913C1.66419 9.98874 1.50257 10.8273 1.44109 11.6935H0.806497L0.692127 11.7021C0.288222 11.7673 0 12.1033 0 12.5C0 12.9454 0.36106 13.3064 0.80645 13.3064L1.44153 13.3054L1.45612 13.5039C1.52757 14.3 1.68315 15.0718 1.91386 15.8094L1.96975 15.9778L1.41391 16.1893L1.31197 16.2419C0.965652 16.4597 0.831612 16.8816 0.98662 17.2468C1.16065 17.6567 1.63408 17.848 2.04407 17.674L2.58568 17.4677L2.6752 17.6461C3.04292 18.3467 3.48342 19.003 3.98691 19.6048L4.11088 19.7469L3.67849 20.181L3.59631 20.2781C3.36479 20.6108 3.40168 21.0447 3.67845 21.3215C3.99339 21.6364 4.50401 21.6364 4.81895 21.3215L5.24999 20.8881L5.39463 21.0134C5.99684 21.5166 6.65323 21.9569 7.35367 22.324L7.53829 22.4163L7.32597 22.9559L7.28918 23.0645C7.19139 23.4617 7.38802 23.8583 7.7532 24.0133C8.16318 24.1874 8.63662 23.9961 8.81065 23.5861L9.02922 23.0322L9.18913 23.086C9.92762 23.3167 10.6993 23.4722 11.4953 23.5436L11.6935 23.5574V24.1935L11.7021 24.3078C11.7673 24.7117 12.1033 25 12.5 25C12.9454 25 13.3064 24.6389 13.3064 24.1935L13.3054 23.5574L13.505 23.5437C14.3033 23.472 15.0772 23.3157 15.8167 23.0837L15.9929 23.0241L16.1758 23.5764L16.2266 23.6792C16.4383 24.0293 16.8578 24.1707 17.2256 24.0221C17.6386 23.8552 17.8381 23.3852 17.6712 22.9723L17.4768 22.4092L17.6522 22.3216C18.3507 21.9543 19.0053 21.5147 19.6055 21.0124L19.7409 20.8941L20.181 21.3215L20.2781 21.4036C20.6108 21.6352 21.0447 21.5983 21.3215 21.3215C21.6364 21.0066 21.6364 20.4959 21.3215 20.181L20.882 19.756L21.0134 19.6053C21.5166 19.0031 21.9569 18.3467 22.324 17.6463L22.4082 17.4768L22.9559 17.674L23.0645 17.7108C23.4617 17.8086 23.8583 17.6119 24.0133 17.2468C24.1874 16.8368 23.9961 16.3633 23.5861 16.1893L23.0282 15.9818L23.0319 15.979C23.2926 15.1895 23.4669 14.3608 23.5436 13.5044L23.5574 13.3054L24.1935 13.3064L24.3078 13.2979C24.7117 13.2326 25 12.8967 25 12.5C25 12.0546 24.6389 11.6935 24.1935 11.6935L23.5574 11.6925L23.5437 11.4941C23.4719 10.696 23.3156 9.92244 23.0837 9.18315L23.0322 9.02821L23.5764 8.82416L23.6792 8.77339C24.0293 8.56163 24.1707 8.14216 24.0221 7.77433C23.8552 7.36137 23.3852 7.16186 22.9723 7.32871L22.4102 7.52317L22.3216 7.34779C21.9543 6.64921 21.5147 5.99465 21.0124 5.39443ZM12.5 2.62096C10.9162 2.62096 9.41955 2.99364 8.09281 3.65607L10.2673 7.42351C10.9504 7.12266 11.7057 6.95563 12.5 6.95563C15.3573 6.95563 17.7099 9.11714 18.0116 11.8943H22.3607C22.0478 6.72035 17.7526 2.62096 12.5 2.62096ZM7.04541 4.26202C4.37893 6.03112 2.62096 9.06025 2.62096 12.5C2.62096 15.9397 4.37893 18.9688 7.04541 20.7379L9.22091 16.9712C7.84724 15.9621 6.95563 14.3351 6.95563 12.5C6.95563 10.6648 7.84724 9.03789 9.22091 8.02878L7.04541 4.26202ZM22.3608 13.1046H18.0117C17.7104 15.8823 15.3577 18.0443 12.5 18.0443C11.7057 18.0443 10.9504 17.8773 10.2673 17.5764L8.09281 21.3439C9.41955 22.0063 10.9162 22.379 12.5 22.379C17.753 22.379 22.0484 18.2791 22.3608 13.1046ZM8.16531 12.5C8.16531 10.106 10.106 8.16531 12.5 8.16531C14.8939 8.16531 16.8346 10.106 16.8346 12.5C16.8346 14.8939 14.8939 16.8346 12.5 16.8346C10.106 16.8346 8.16531 14.8939 8.16531 12.5Z" fill="#545458" fill-opacity="0.65"/>
</svg>
