<svg width="17" height="17" viewBox="0 0 17 17" fill="none" xmlns="http://www.w3.org/2000/svg">
<path fill-rule="evenodd" clip-rule="evenodd" d="M13.6233 6.81163C13.6233 3.04967 10.5736 0 6.81163 0C3.04967 0 0 3.04967 0 6.81163C0 10.5736 3.04967 13.6233 6.81163 13.6233C8.23715 13.6233 9.5604 13.1854 10.6542 12.4367L14.8466 16.6305L14.9491 16.7225C15.4444 17.121 16.1708 17.0903 16.6305 16.6305C17.1232 16.1379 17.1232 15.3392 16.6305 14.8466L12.4367 10.6542C13.1854 9.5604 13.6233 8.23715 13.6233 6.81163ZM2.01826 6.81163C2.01826 4.16432 4.16432 2.01826 6.81163 2.01826C9.45893 2.01826 11.605 4.16432 11.605 6.81163C11.605 9.45893 9.45893 11.605 6.81163 11.605C4.16432 11.605 2.01826 9.45893 2.01826 6.81163Z" fill="white"/>
</svg>
