<svg width="51" height="31" viewBox="0 0 51 31" fill="none" xmlns="http://www.w3.org/2000/svg">
<path fill-rule="evenodd" clip-rule="evenodd" d="M15.8569 0.0921515C17.5969 -0.00784774 19.3348 0.000152199 21.0748 0.000152199C21.0868 0.000152199 29.8918 0.000152199 29.8918 0.000152199C31.6658 0.000152199 33.4037 -0.00784774 35.1427 0.0921515C36.7237 0.182151 38.2637 0.374149 39.7967 0.803146C43.0237 1.70514 45.8416 3.58912 47.8786 6.2601C49.9036 8.91408 50.9996 12.1631 50.9996 15.499C50.9996 18.839 49.9036 22.086 47.8786 24.74C45.8416 27.4099 43.0237 29.2949 39.7967 30.1969C38.2637 30.6259 36.7237 30.8169 35.1427 30.9079C33.4037 31.0079 31.6658 30.9989 29.9258 30.9989C29.9138 30.9989 21.1068 30.9999 21.1068 30.9999C19.3348 30.9989 17.5969 31.0079 15.8569 30.9079C14.2769 30.8169 12.7369 30.6259 11.2039 30.1969C7.97694 29.2949 5.15896 27.4099 3.12198 24.74C1.09699 22.086 0 18.839 0 15.5C0 12.1631 1.09699 8.91408 3.12198 6.2601C5.15896 3.58912 7.97694 1.70514 11.2039 0.803146C12.7369 0.374149 14.2769 0.182151 15.8569 0.0921515Z" fill="#34C759"/>
</svg>
